{
  "source": "C:\\Users\\Peter\\Desktop\\stuff\\MIUN\\quantitative_research\\video_compression\\videos\\BVI-HD\\BVI-HD_CDVL_videos\\ORIG\\Grass_1920x1080_60fps.mp4",
  "output": "C:\\Users\\Peter\\Desktop\\stuff\\MIUN\\quantitative_research\\video_compression\\compressed_videos\\BVI-HD\\h264\\2\\Grass_1920x1080_60fps_h264.mp4",
  "codec": "h264",
  "ok": "Input #0, mov,mp4,m4a,3gp,3g2,mj2, from 'C:\\Users\\Peter\\Desktop\\stuff\\MIUN\\quantitative_research\\video_compression\\videos\\BVI-HD\\BVI-HD_CDVL_videos\\ORIG\\Grass_1920x1080_60fps.mp4':\n  Metadata:\n    major_brand     : isom\n    minor_version   : 512\n    compatible_brands: isomiso2avc1mp41\n    encoder         : Lavf54.28.101\n  Duration: 00:00:05.00, start: 0.000000, bitrate: 655968 kb/s\n  Stream #0:0[0x1](und): Video: h264 (High 4:4:4 Predictive) (avc1 / 0x31637661), yuv420p(progressive), 1920x1080, 655963 kb/s, 60 fps, 60 tbr, 60 tbn (default)\n    Metadata:\n      handler_name    : VideoHandler\n      vendor_id       : [0][0][0][0]\n[out#0/mp4 @ 00000186fa307d40] Codec AVOption b:a (set bitrate (in bits/s)) has not been used for any stream. The most likely reason is either wrong type (e.g. a video option with no video streams) or that it is a private option of some decoder which was not actually used for any stream.\nStream mapping:\n  Stream #0:0 -> #0:0 (h264 (native) -> h264 (libx264))\nPress [q] to stop, [?] for help\n[libx264 @ 00000186faf80ac0] using cpu capabilities: MMX2 SSE2Fast SSSE3 SSE4.2 AVX FMA3 BMI2 AVX2\n[libx264 @ 00000186faf80ac0] profile High, level 5.0, 4:2:0, 8-bit\n[libx264 @ 00000186faf80ac0] 264 - core 165 r3222 b35605a - H.264/MPEG-4 AVC codec - Copyleft 2003-2025 - http://www.videolan.org/x264.html - options: cabac=1 ref=5 deblock=1:0:0 analyse=0x3:0x113 me=hex subme=8 psy=1 psy_rd=1.00:0.00 mixed_ref=1 me_range=16 chroma_me=1 trellis=2 8x8dct=1 cqm=0 deadzone=21,11 fast_pskip=1 chroma_qp_offset=-2 threads=18 lookahead_threads=3 sliced_threads=0 nr=0 decimate=1 interlaced=0 bluray_compat=0 constrained_intra=0 bframes=3 b_pyramid=2 b_adapt=1 b_bias=0 direct=3 weightb=1 open_gop=0 weightp=2 keyint=250 keyint_min=25 scenecut=40 intra_refresh=0 rc_lookahead=50 rc=cbr mbtree=1 bitrate=2000 ratetol=1.0 qcomp=0.60 qpmin=0 qpmax=69 qpstep=4 vbv_maxrate=2000 vbv_bufsize=2000 nal_hrd=none filler=0 ip_ratio=1.40 aq=1:1.00\nOutput #0, mp4, to 'C:\\Users\\Peter\\Desktop\\stuff\\MIUN\\quantitative_research\\video_compression\\compressed_videos\\BVI-HD\\h264\\2\\Grass_1920x1080_60fps_h264.mp4':\n  Metadata:\n    major_brand     : isom\n    minor_version   : 512\n    compatible_brands: isomiso2avc1mp41\n    encoder         : Lavf62.3.100\n  Stream #0:0(und): Video: h264 (avc1 / 0x31637661), yuv420p(tv, progressive), 1920x1080, q=2-31, 2000 kb/s, 60 fps, 15360 tbn (default)\n    Metadata:\n      encoder         : Lavc62.11.100 libx264\n      handler_name    : VideoHandler\n      vendor_id       : [0][0][0][0]\n    Side data:\n      cpb: bitrate max/min/avg: 2000000/0/2000000 buffer size: 2000000 vbv_delay: N/A\nframe=    0 fps=0.0 q=0.0 size=       0KiB time=N/A bitrate=N/A speed=N/A elapsed=0:00:01.13    \nframe=    0 fps=0.0 q=0.0 size=       0KiB time=N/A bitrate=N/A speed=N/A elapsed=0:00:01.66    \nframe=    0 fps=0.0 q=0.0 size=       0KiB time=N/A bitrate=N/A speed=N/A elapsed=0:00:02.22    \nframe=   16 fps=5.7 q=47.0 size=       0KiB time=00:00:00.10 bitrate=   3.8kbits/s speed=0.0358x elapsed=0:00:02.79    \nframe=   40 fps= 11 q=44.0 size=       0KiB time=00:00:00.56 bitrate=   0.7kbits/s speed=0.161x elapsed=0:00:03.51    \nframe=   68 fps= 16 q=44.0 size=       0KiB time=00:00:01.08 bitrate=   0.4kbits/s speed=0.262x elapsed=0:00:04.13    \nframe=   89 fps= 19 q=44.0 size=     256KiB time=00:00:01.45 bitrate=1446.6kbits/s speed=0.309x elapsed=0:00:04.68    \nframe=  114 fps= 22 q=44.0 size=     256KiB time=00:00:01.83 bitrate=1144.1kbits/s speed=0.351x elapsed=0:00:05.22    \nframe=  133 fps= 23 q=44.0 size=     256KiB time=00:00:02.16 bitrate= 968.1kbits/s speed=0.374x elapsed=0:00:05.80    \nframe=  152 fps= 24 q=43.0 size=     256KiB time=00:00:02.40 bitrate= 874.0kbits/s speed=0.374x elapsed=0:00:06.41    \nframe=  171 fps= 24 q=43.0 size=     256KiB time=00:00:02.70 bitrate= 776.9kbits/s speed=0.382x elapsed=0:00:07.06    \nframe=  185 fps= 24 q=43.0 size=     512KiB time=00:00:03.05 bitrate=1375.3kbits/s speed=0.398x elapsed=0:00:07.66    \nframe=  211 fps= 26 q=44.0 size=     512KiB time=00:00:03.43 bitrate=1221.8kbits/s speed=0.419x elapsed=0:00:08.19    \nframe=  233 fps= 27 q=43.0 size=     512KiB time=00:00:03.85 bitrate=1089.5kbits/s speed=0.439x elapsed=0:00:08.76    \nframe=  250 fps= 27 q=45.0 size=     512KiB time=00:00:04.13 bitrate=1014.8kbits/s speed=0.443x elapsed=0:00:09.33    \nframe=  268 fps= 27 q=44.0 size=     768KiB time=00:00:04.43 bitrate=1419.2kbits/s speed=0.447x elapsed=0:00:09.92    \n[mp4 @ 00000186fa279ac0] Starting second pass: moving the moov atom to the beginning of the file\n[out#0/mp4 @ 00000186fa307d40] video:918KiB audio:0KiB subtitle:0KiB other streams:0KiB global headers:0KiB muxing overhead: 0.474047%\nframe=  300 fps= 29 q=-1.0 Lsize=     922KiB time=00:00:04.96 bitrate=1520.9kbits/s speed=0.486x elapsed=0:00:10.21    \n[libx264 @ 00000186faf80ac0] frame I:2     Avg QP:40.64  size:107582\n[libx264 @ 00000186faf80ac0] frame P:76    Avg QP:42.21  size:  7264\n[libx264 @ 00000186faf80ac0] frame B:222   Avg QP:46.95  size:   774\n[libx264 @ 00000186faf80ac0] consecutive B-frames:  1.3%  0.0%  0.0% 98.7%\n[libx264 @ 00000186faf80ac0] mb I  I16..4:  3.3% 87.0%  9.7%\n[libx264 @ 00000186faf80ac0] mb P  I16..4:  0.0%  0.1%  0.0%  P16..4: 15.9%  2.9% 12.3%  0.0%  0.0%    skip:68.8%\n[libx264 @ 00000186faf80ac0] mb B  I16..4:  0.0%  0.0%  0.0%  B16..8: 13.5%  0.0%  0.0%  direct: 0.0%  skip:86.5%  L0: 7.6% L1:92.4% BI: 0.0%\n[libx264 @ 00000186faf80ac0] 8x8 transform intra:87.2% inter:81.3%\n[libx264 @ 00000186faf80ac0] direct mvs  spatial:95.5% temporal:4.5%\n[libx264 @ 00000186faf80ac0] coded y,uvDC,uvAC intra: 84.4% 93.3% 68.1% inter: 1.3% 2.3% 0.1%\n[libx264 @ 00000186faf80ac0] i16 v,h,dc,p: 40% 17% 16% 28%\n[libx264 @ 00000186faf80ac0] i8 v,h,dc,ddl,ddr,vr,hd,vl,hu:  5%  3%  2% 14% 19% 17% 16% 13% 12%\n[libx264 @ 00000186faf80ac0] i4 v,h,dc,ddl,ddr,vr,hd,vl,hu:  5%  2%  1% 14% 20% 17% 16% 12% 14%\n[libx264 @ 00000186faf80ac0] i8c dc,h,v,p: 58% 14% 14% 13%\n[libx264 @ 00000186faf80ac0] Weighted P-Frames: Y:0.0% UV:0.0%\n[libx264 @ 00000186faf80ac0] ref P L0: 86.0%  2.0%  6.9%  1.9%  3.2%\n[libx264 @ 00000186faf80ac0] ref B L0: 94.2%  4.5%  0.8%  0.6%\n[libx264 @ 00000186faf80ac0] ref B L1: 93.9%  6.1%\n[libx264 @ 00000186faf80ac0] kb/s:1502.43\n",
  "seconds": 10.756915092468262,
  "probe_out": {}
}